<svg width="28" height="29" viewBox="0 0 28 29" fill="none" xmlns="http://www.w3.org/2000/svg">
  <path d="M24.6061 0H3.07576C1.38409 0 0 1.45 0 3.22222V25.7778C0 27.55 1.38409 29 3.07576 29H24.6061C26.2977 29 27.6818 27.55 27.6818 25.7778V3.22222C27.6818 1.45 26.2977 0 24.6061 0ZM15.4249 6.54111L17.0551 4.83333L19.2235 7.105L21.3919 4.83333L23.022 6.54111L20.8536 8.81278L23.022 11.0844L21.3919 12.7922L19.2235 10.5367L17.0551 12.8083L15.4249 11.1006L17.5933 8.82889L15.4249 6.54111ZM4.99811 7.60444H12.6875V10.0211H4.99811V7.60444ZM13.072 20.9444H9.99621V24.1667H7.68939V20.9444H4.61364V18.5278H7.68939V15.3056H9.99621V18.5278H13.072V20.9444ZM23.0682 22.9583H15.3788V20.5417H23.0682V22.9583ZM23.0682 18.9306H15.3788V16.5139H23.0682V18.9306Z" fill="white"/>
</svg>
