<svg width="37" height="29" viewBox="0 0 37 29" fill="none" xmlns="http://www.w3.org/2000/svg">
  <path d="M25.375 10.875H27.1875V18.125H25.375V10.875ZM14.5 10.875H16.3125V18.125H14.5V10.875Z" fill="white"/>
  <path d="M32.625 0H3.625C1.63125 0 0 1.63125 0 3.625V25.375C0 27.3687 1.63125 29 3.625 29H32.625C34.6188 29 36.25 27.3687 36.25 25.375V3.625C36.25 1.63125 34.6188 0 32.625 0ZM9.0625 19.9375C9.0625 20.9344 8.24687 21.75 7.25 21.75C6.25313 21.75 5.4375 20.9344 5.4375 19.9375V9.0625C5.4375 8.06563 6.25313 7.25 7.25 7.25C8.24687 7.25 9.0625 8.06563 9.0625 9.0625V19.9375ZM19.9375 19.9375C19.9375 20.9344 19.1219 21.75 18.125 21.75H12.6875C11.6906 21.75 10.875 20.9344 10.875 19.9375V9.0625C10.875 8.06563 11.6906 7.25 12.6875 7.25H18.125C19.1219 7.25 19.9375 8.06563 19.9375 9.0625V19.9375ZM30.8125 19.9375C30.8125 20.9344 29.9969 21.75 29 21.75H23.5625C22.5656 21.75 21.75 20.9344 21.75 19.9375V9.0625C21.75 8.06563 22.5656 7.25 23.5625 7.25H29C29.9969 7.25 30.8125 8.06563 30.8125 9.0625V19.9375Z" fill="white"/>
</svg>
