<svg width="20" height="16" viewBox="0 0 20 16" fill="none" xmlns="http://www.w3.org/2000/svg">
  <path d="M14 6H15V10H14V6ZM8 6H9V10H8V6Z" fill="#FA4A0C"/>
  <path d="M18 0H2C0.9 0 0 0.9 0 2V14C0 15.1 0.9 16 2 16H18C19.1 16 20 15.1 20 14V2C20 0.9 19.1 0 18 0ZM5 11C5 11.55 4.55 12 4 12C3.45 12 3 11.55 3 11V5C3 4.45 3.45 4 4 4C4.55 4 5 4.45 5 5V11ZM11 11C11 11.55 10.55 12 10 12H7C6.45 12 6 11.55 6 11V5C6 4.45 6.45 4 7 4H10C10.55 4 11 4.45 11 5V11ZM17 11C17 11.55 16.55 12 16 12H13C12.45 12 12 11.55 12 11V5C12 4.45 12.45 4 13 4H16C16.55 4 17 4.45 17 5V11Z" fill="#FA4A0C"/>
</svg>
