<svg width="22" height="18" viewBox="0 0 22 18" fill="none" xmlns="http://www.w3.org/2000/svg">
  <path d="M1 9L6 13V10H15V8H6V5L1 9Z" fill="#FA4A0C"/>
  <path d="M12.001 -0.00100324C10.8185 -0.00428193 9.64715 0.227107 8.55474 0.67976C7.46233 1.13241 6.4706 1.79733 5.63699 2.636L7.05099 4.05C8.37299 2.728 10.131 1.999 12.001 1.999C13.871 1.999 15.629 2.728 16.951 4.05C18.273 5.372 19.002 7.13 19.002 9C19.002 10.87 18.273 12.628 16.951 13.95C15.629 15.272 13.871 16.001 12.001 16.001C10.131 16.001 8.37299 15.272 7.05099 13.95L5.63699 15.364C7.33599 17.064 9.59599 18.001 12.001 18.001C14.406 18.001 16.666 17.064 18.365 15.364C20.065 13.665 21.002 11.405 21.002 9C21.002 6.595 20.065 4.335 18.365 2.636C17.5314 1.79733 16.5397 1.13241 15.4472 0.67976C14.3548 0.227107 13.1835 -0.00428193 12.001 -0.00100324Z" fill="#FA4A0C"/>
</svg>
