<svg width="22" height="18" viewBox="0 0 22 18" fill="none" xmlns="http://www.w3.org/2000/svg">
  <path d="M18 0H4C2.9 0 2 0.9 2 2V16C2 17.1 2.9 18 4 18H18C19.1 18 20 17.1 20 16V2C20 0.9 19.1 0 18 0ZM12.03 4.06L13.09 3L14.5 4.41L15.91 3L16.97 4.06L15.56 5.47L16.97 6.88L15.91 7.94L14.5 6.54L13.09 7.95L12.03 6.89L13.44 5.48L12.03 4.06ZM5.25 4.72H10.25V6.22H5.25V4.72ZM10.5 13H8.5V15H7V13H5V11.5H7V9.5H8.5V11.5H10.5V13ZM17 14.25H12V12.75H17V14.25ZM17 11.75H12V10.25H17V11.75Z" fill="#FA4A0C"/>
</svg>
