<svg width="21" height="22" viewBox="0 0 21 22" fill="none" xmlns="http://www.w3.org/2000/svg">
  <path d="M18.6667 0H2.33333C1.05 0 0 1.1 0 2.44444V19.5556C0 20.9 1.05 22 2.33333 22H18.6667C19.95 22 21 20.9 21 19.5556V2.44444C21 1.1 19.95 0 18.6667 0ZM11.7017 4.96222L12.9383 3.66667L14.5833 5.39L16.2283 3.66667L17.465 4.96222L15.82 6.68556L17.465 8.40889L16.2283 9.70444L14.5833 7.99333L12.9383 9.71667L11.7017 8.42111L13.3467 6.69778L11.7017 4.96222ZM3.79167 5.76889H9.625V7.60222H3.79167V5.76889ZM9.91667 15.8889H7.58333V18.3333H5.83333V15.8889H3.5V14.0556H5.83333V11.6111H7.58333V14.0556H9.91667V15.8889ZM17.5 17.4167H11.6667V15.5833H17.5V17.4167ZM17.5 14.3611H11.6667V12.5278H17.5V14.3611Z" fill="#51BFD0"/>
</svg>
