<svg width="31" height="31" viewBox="0 0 31 31" fill="none" xmlns="http://www.w3.org/2000/svg">
  <path d="M16.5959 3.55416C16.3053 3.26358 15.9111 3.10034 15.5001 3.10034C15.0891 3.10034 14.6949 3.26358 14.4042 3.55416L3.55424 14.4042C3.2719 14.6965 3.11567 15.088 3.1192 15.4944C3.12273 15.9008 3.28574 16.2896 3.57313 16.577C3.86051 16.8644 4.24927 17.0274 4.65567 17.0309C5.06208 17.0344 5.45361 16.8782 5.74594 16.5959L6.20009 16.1417V26.35C6.20009 26.7611 6.3634 27.1553 6.65408 27.446C6.94476 27.7367 7.33901 27.9 7.75009 27.9H10.8501C11.2612 27.9 11.6554 27.7367 11.9461 27.446C12.2368 27.1553 12.4001 26.7611 12.4001 26.35V23.25C12.4001 22.8389 12.5634 22.4447 12.8541 22.154C13.1448 21.8633 13.539 21.7 13.9501 21.7H17.0501C17.4612 21.7 17.8554 21.8633 18.1461 22.154C18.4368 22.4447 18.6001 22.8389 18.6001 23.25V26.35C18.6001 26.7611 18.7634 27.1553 19.0541 27.446C19.3448 27.7367 19.739 27.9 20.1501 27.9H23.2501C23.6612 27.9 24.0554 27.7367 24.3461 27.446C24.6368 27.1553 24.8001 26.7611 24.8001 26.35V16.1417L25.2542 16.5959C25.5466 16.8782 25.9381 17.0344 26.3445 17.0309C26.7509 17.0274 27.1397 16.8644 27.4271 16.577C27.7144 16.2896 27.8775 15.9008 27.881 15.4944C27.8845 15.088 27.7283 14.6965 27.4459 14.4042L16.5959 3.55416Z" fill="white"/>
</svg>
