<svg width="22" height="17" viewBox="0 0 22 17" fill="none" xmlns="http://www.w3.org/2000/svg">
  <path fill-rule="evenodd" clip-rule="evenodd" d="M11.3855 1.41406C9.18603 1.41406 7.21897 2.41601 5.91941 3.99051C5.86138 4.06572 5.78882 4.1285 5.70604 4.17511C5.62326 4.22172 5.53195 4.25121 5.43755 4.26182C5.34315 4.27243 5.24757 4.26396 5.15651 4.23689C5.06545 4.20983 4.98076 4.16473 4.90748 4.10428C4.83419 4.04383 4.77381 3.96926 4.72993 3.885C4.68604 3.80075 4.65955 3.70853 4.65202 3.61383C4.64449 3.51913 4.65607 3.42388 4.68609 3.33375C4.71611 3.24362 4.76395 3.16045 4.82676 3.08918C5.86441 1.83288 7.24106 0.901052 8.79299 0.404532C10.3449 -0.0919875 12.0068 -0.132307 13.581 0.28837C15.1552 0.709047 16.5754 1.57302 17.6727 2.77752C18.7701 3.98202 19.4984 5.47636 19.771 7.08281H18.3297C18.0025 5.48253 17.1327 4.04435 15.8674 3.01143C14.6021 1.97852 13.0189 1.41426 11.3855 1.41406ZM4.44128 9.91719C4.70957 11.2276 5.34311 12.4353 6.26871 13.4008C7.19431 14.3664 8.3742 15.0504 9.67207 15.3738C10.9699 15.6972 12.3328 15.6468 13.6032 15.2284C14.8737 14.81 15.9998 14.0408 16.8516 13.0095C16.9096 12.9343 16.9822 12.8715 17.065 12.8249C17.1477 12.7783 17.2391 12.7488 17.3335 12.7382C17.4279 12.7276 17.5234 12.736 17.6145 12.7631C17.7056 12.7902 17.7902 12.8353 17.8635 12.8957C17.9368 12.9562 17.9972 13.0307 18.0411 13.115C18.085 13.1993 18.1115 13.2915 18.119 13.3862C18.1265 13.4809 18.1149 13.5761 18.0849 13.6662C18.0549 13.7564 18.0071 13.8396 17.9443 13.9108C16.9066 15.1671 15.5299 16.0989 13.978 16.5955C12.4261 17.092 10.7642 17.1323 9.19003 16.7116C7.61585 16.291 6.19563 15.427 5.09827 14.2225C4.00092 13.018 3.27262 11.5236 3 9.91719H4.44128Z" fill="#FA4A0C"/>
  <path d="M15.05 4L16.39 4.94L10.58 13.32H9.24L6 8.78L7.34 7.53L9.91 9.93L15.05 4Z" fill="#FA4A0C"/>
  <path d="M15.9432 7.08281H21.5156C21.5829 7.08284 21.6489 7.10204 21.7057 7.13818C21.7625 7.17431 21.8078 7.22589 21.8363 7.28685C21.8649 7.34782 21.8755 7.41566 21.8669 7.48243C21.8583 7.5492 21.8308 7.61213 21.7877 7.66386L19.0015 11.0084C18.9683 11.0483 18.9267 11.0804 18.8797 11.1024C18.8326 11.1244 18.7813 11.1358 18.7294 11.1358C18.6775 11.1358 18.6262 11.1244 18.5792 11.1024C18.5322 11.0804 18.4906 11.0483 18.4573 11.0084L15.6711 7.66386C15.628 7.61213 15.6006 7.5492 15.592 7.48243C15.5834 7.41566 15.594 7.34782 15.6225 7.28685C15.6511 7.22589 15.6964 7.17431 15.7532 7.13818C15.81 7.10204 15.8759 7.08284 15.9432 7.08281ZM0.354164 9.91719H5.92655C5.99387 9.91716 6.05979 9.89796 6.11659 9.86182C6.17339 9.82569 6.21872 9.77411 6.24727 9.71315C6.27582 9.65218 6.28641 9.58434 6.2778 9.51757C6.26919 9.4508 6.24173 9.38787 6.19865 9.33614L3.41246 5.99158C3.37921 5.9517 3.3376 5.91963 3.29058 5.89761C3.24356 5.8756 3.19227 5.86419 3.14036 5.86419C3.08844 5.86419 3.03716 5.8756 2.99013 5.89761C2.94311 5.91963 2.90151 5.9517 2.86826 5.99158L0.0820643 9.33614C0.0389786 9.38787 0.0115224 9.4508 0.00291081 9.51757C-0.00570075 9.58434 0.00488878 9.65218 0.0334394 9.71315C0.0619901 9.77411 0.10732 9.82569 0.164121 9.86182C0.220922 9.89796 0.286843 9.91716 0.354164 9.91719Z" fill="#FA4A0C"/>
</svg>
