<svg width="22" height="17" viewBox="0 0 22 17" fill="none" xmlns="http://www.w3.org/2000/svg">
  <path d="M15.9432 7.08282H21.5156C21.5829 7.08284 21.6489 7.10205 21.7057 7.13819C21.7625 7.17432 21.8078 7.22589 21.8363 7.28686C21.8649 7.34783 21.8755 7.41567 21.8669 7.48244C21.8583 7.54921 21.8308 7.61214 21.7877 7.66387L19.0015 11.0084C18.9683 11.0483 18.9267 11.0804 18.8797 11.1024C18.8326 11.1244 18.7813 11.1358 18.7294 11.1358C18.6775 11.1358 18.6262 11.1244 18.5792 11.1024C18.5322 11.0804 18.4906 11.0483 18.4573 11.0084L15.6711 7.66387C15.628 7.61214 15.6006 7.54921 15.592 7.48244C15.5834 7.41567 15.594 7.34783 15.6225 7.28686C15.6511 7.22589 15.6964 7.17432 15.7532 7.13819C15.81 7.10205 15.8759 7.08284 15.9432 7.08282ZM0.354164 9.9172H5.92655C5.99387 9.91717 6.05979 9.89796 6.11659 9.86183C6.17339 9.82569 6.21872 9.77412 6.24727 9.71315C6.27582 9.65219 6.28641 9.58435 6.2778 9.51758C6.26919 9.45081 6.24173 9.38788 6.19865 9.33615L3.41246 5.99158C3.37921 5.95171 3.3376 5.91963 3.29058 5.89762C3.24356 5.87561 3.19227 5.8642 3.14036 5.8642C3.08844 5.8642 3.03716 5.87561 2.99013 5.89762C2.94311 5.91963 2.90151 5.95171 2.86826 5.99158L0.0820643 9.33615C0.0389786 9.38788 0.0115224 9.45081 0.00291081 9.51758C-0.00570075 9.58435 0.00488878 9.65219 0.0334394 9.71315C0.0619901 9.77412 0.10732 9.82569 0.164121 9.86183C0.220922 9.89796 0.286843 9.91717 0.354164 9.9172Z" fill="#51BFD0"/>
  <path fill-rule="evenodd" clip-rule="evenodd" d="M10.9349 1.41406C8.73547 1.41406 6.76841 2.41601 5.46885 3.99051C5.41082 4.06572 5.33826 4.1285 5.25548 4.17511C5.1727 4.22172 5.08139 4.25121 4.98699 4.26182C4.89258 4.27243 4.79701 4.26396 4.70595 4.23689C4.61489 4.20983 4.5302 4.16473 4.45691 4.10428C4.38363 4.04383 4.32325 3.96926 4.27937 3.885C4.23548 3.80075 4.20899 3.70853 4.20145 3.61383C4.19392 3.51913 4.20551 3.42388 4.23553 3.33375C4.26555 3.24362 4.31339 3.16045 4.37619 3.08918C5.41384 1.83288 6.7905 0.901052 8.34243 0.404532C9.89435 -0.0919875 11.5562 -0.132307 13.1304 0.28837C14.7046 0.709047 16.1248 1.57302 17.2222 2.77752C18.3195 3.98202 19.0478 5.47636 19.3204 7.08281H17.8792C17.552 5.48253 16.6822 4.04435 15.4168 3.01143C14.1515 1.97852 12.5683 1.41426 10.9349 1.41406ZM3.99072 9.91719C4.25901 11.2276 4.89255 12.4353 5.81815 13.4008C6.74375 14.3664 7.92364 15.0504 9.22151 15.3738C10.5194 15.6972 11.8823 15.6468 13.1527 15.2284C14.4231 14.81 15.5493 14.0408 16.401 13.0095C16.4591 12.9343 16.5316 12.8715 16.6144 12.8249C16.6972 12.7783 16.7885 12.7488 16.8829 12.7382C16.9773 12.7276 17.0729 12.736 17.1639 12.7631C17.255 12.7902 17.3397 12.8353 17.413 12.8957C17.4863 12.9562 17.5466 13.0307 17.5905 13.115C17.6344 13.1993 17.6609 13.2915 17.6684 13.3862C17.676 13.4809 17.6644 13.5761 17.6344 13.6662C17.6043 13.7564 17.5565 13.8396 17.4937 13.9108C16.456 15.1671 15.0794 16.0989 13.5275 16.5955C11.9755 17.092 10.3136 17.1323 8.73947 16.7116C7.16529 16.291 5.74506 15.427 4.64771 14.2225C3.55036 13.018 2.82206 11.5236 2.54944 9.91719H3.99072Z" fill="#51BFD0"/>
</svg>
