<svg width="22" height="17" viewBox="0 0 22 17" fill="none" xmlns="http://www.w3.org/2000/svg">
  <path d="M15.9432 7.08281H21.5156C21.5829 7.08284 21.6489 7.10204 21.7057 7.13818C21.7625 7.17431 21.8078 7.22589 21.8363 7.28685C21.8649 7.34782 21.8755 7.41566 21.8669 7.48243C21.8583 7.5492 21.8308 7.61213 21.7877 7.66386L19.0015 11.0084C18.9683 11.0483 18.9267 11.0804 18.8797 11.1024C18.8326 11.1244 18.7813 11.1358 18.7294 11.1358C18.6775 11.1358 18.6262 11.1244 18.5792 11.1024C18.5322 11.0804 18.4906 11.0483 18.4573 11.0084L15.6711 7.66386C15.628 7.61213 15.6006 7.5492 15.592 7.48243C15.5834 7.41566 15.594 7.34782 15.6225 7.28685C15.6511 7.22589 15.6964 7.17431 15.7532 7.13818C15.81 7.10204 15.8759 7.08284 15.9432 7.08281ZM0.354164 9.91719H5.92655C5.99387 9.91716 6.05979 9.89796 6.11659 9.86182C6.17339 9.82569 6.21872 9.77411 6.24727 9.71315C6.27582 9.65218 6.28641 9.58434 6.2778 9.51757C6.26919 9.4508 6.24173 9.38787 6.19865 9.33614L3.41246 5.99158C3.37921 5.9517 3.3376 5.91963 3.29058 5.89761C3.24356 5.8756 3.19227 5.86419 3.14036 5.86419C3.08844 5.86419 3.03716 5.8756 2.99013 5.89761C2.94311 5.91963 2.90151 5.9517 2.86826 5.99158L0.0820643 9.33614C0.0389786 9.38787 0.0115224 9.4508 0.00291081 9.51757C-0.00570075 9.58434 0.00488878 9.65218 0.0334394 9.71315C0.0619901 9.77411 0.10732 9.82569 0.164121 9.86182C0.220922 9.89796 0.286843 9.91716 0.354164 9.91719Z" fill="#FA4A0C"/>
  <path fill-rule="evenodd" clip-rule="evenodd" d="M10.9349 1.41406C8.73543 1.41406 6.76838 2.41601 5.46882 3.99051C5.41079 4.06572 5.33822 4.1285 5.25545 4.17511C5.17267 4.22172 5.08136 4.25121 4.98696 4.26182C4.89255 4.27243 4.79698 4.26396 4.70592 4.23689C4.61486 4.20983 4.53017 4.16473 4.45688 4.10428C4.3836 4.04383 4.32322 3.96926 4.27934 3.885C4.23545 3.80075 4.20895 3.70853 4.20142 3.61383C4.19389 3.51913 4.20548 3.42388 4.2355 3.33375C4.26552 3.24362 4.31336 3.16045 4.37616 3.08918C5.41381 1.83288 6.79047 0.901052 8.3424 0.404532C9.89432 -0.0919875 11.5562 -0.132307 13.1304 0.28837C14.7046 0.709047 16.1248 1.57302 17.2221 2.77752C18.3195 3.98202 19.0478 5.47636 19.3204 7.08281H17.8791C17.5519 5.48253 16.6821 4.04435 15.4168 3.01143C14.1515 1.97852 12.5683 1.41426 10.9349 1.41406ZM3.99069 9.91719C4.25898 11.2276 4.89252 12.4353 5.81812 13.4008C6.74372 14.3664 7.92361 15.0504 9.22148 15.3738C10.5193 15.6972 11.8822 15.6468 13.1527 15.2284C14.4231 14.81 15.5492 14.0408 16.401 13.0095C16.459 12.9343 16.5316 12.8715 16.6144 12.8249C16.6972 12.7783 16.7885 12.7488 16.8829 12.7382C16.9773 12.7276 17.0728 12.736 17.1639 12.7631C17.255 12.7902 17.3397 12.8353 17.4129 12.8957C17.4862 12.9562 17.5466 13.0307 17.5905 13.115C17.6344 13.1993 17.6609 13.2915 17.6684 13.3862C17.6759 13.4809 17.6643 13.5761 17.6343 13.6662C17.6043 13.7564 17.5565 13.8396 17.4937 13.9108C16.456 15.1671 15.0794 16.0989 13.5274 16.5955C11.9755 17.092 10.3136 17.1323 8.73944 16.7116C7.16526 16.291 5.74503 15.427 4.64768 14.2225C3.55033 13.018 2.82203 11.5236 2.54941 9.91719H3.99069Z" fill="#FA4A0C"/>
</svg>
